<svg width="73" height="73" viewBox="0 0 73 73" fill="none" xmlns="http://www.w3.org/2000/svg">
<path d="M22.9457 58.3845H17.2136C8.43663 57.7576 4.49609 51.0106 4.49609 45.01C4.49609 39.0094 8.43667 32.2327 17.0644 31.6356C18.2884 31.5162 19.3631 32.4715 19.4527 33.7253C19.5422 34.9493 18.6169 36.0241 17.3631 36.1136C11.5714 36.5316 8.97416 40.8902 8.97416 45.0399C8.97416 49.1896 11.5714 53.5482 17.3631 53.9662H22.9457C24.1697 53.9662 25.1847 54.9812 25.1847 56.2052C25.1847 57.4292 24.1697 58.3845 22.9457 58.3845Z" fill="#292D32"/>
<path d="M50.4419 58.3844C50.3822 58.3844 50.3523 58.3844 50.2926 58.3844C49.0686 58.3844 47.9343 57.3694 47.9343 56.1454C47.9343 54.8617 48.8896 53.9063 50.1434 53.9063C53.8154 53.9063 57.0993 52.6226 59.6668 50.3239C64.3239 46.2638 64.6225 40.4125 63.3686 36.2927C62.1147 32.2027 58.6218 27.5156 52.5317 26.7693C51.5465 26.6499 50.7702 25.9036 50.5911 24.9184C49.397 17.7535 45.5459 12.7977 39.6946 11.0065C33.6641 9.12574 26.6186 10.9767 22.2301 15.5741C17.961 20.0224 16.9758 26.2618 19.4537 33.1282C19.8716 34.2925 19.2747 35.5761 18.1104 35.9941C16.9461 36.412 15.6623 35.815 15.2444 34.6507C12.2291 26.2319 13.6025 18.1714 19.006 12.4992C24.5289 6.70758 33.3955 4.40882 41.0082 6.73741C47.9939 8.88688 52.9197 14.6487 54.7109 22.6495C60.8011 24.0227 65.6972 28.6501 67.6377 35.0388C69.7573 41.9947 67.8467 49.1596 62.6222 53.6974C59.3085 56.6828 54.9796 58.3844 50.4419 58.3844Z" fill="#292D32"/>
<path d="M36.5018 67.1614C30.5012 67.1614 24.8888 63.967 21.8138 58.8023C21.4855 58.2948 21.1571 57.6978 20.8884 57.041C19.8734 54.9214 19.3359 52.5032 19.3359 49.9955C19.3359 40.5319 27.0382 32.8296 36.5018 32.8296C45.9655 32.8296 53.6677 40.5319 53.6677 49.9955C53.6677 52.5331 53.1304 54.9214 52.0557 57.1305C51.8169 57.6978 51.4885 58.2948 51.1303 58.8621C48.115 63.9671 42.5024 67.1614 36.5018 67.1614ZM36.5018 37.3077C29.5161 37.3077 23.814 43.0097 23.814 49.9955C23.814 51.8464 24.2021 53.5779 24.9485 55.1602C25.1873 55.6677 25.3962 56.0857 25.635 56.4738C27.9039 60.3249 32.0536 62.6833 36.472 62.6833C40.8903 62.6833 45.04 60.3249 47.279 56.5335C47.5477 56.0857 47.7866 55.6677 47.9658 55.2497C48.7718 53.6078 49.1598 51.8763 49.1598 50.0253C49.1897 43.0097 43.4876 37.3077 36.5018 37.3077Z" fill="#292D32"/>
<path d="M34.7965 55.19C34.2293 55.19 33.6622 54.981 33.2144 54.5332L30.2587 51.5776C29.3929 50.7119 29.3929 49.2789 30.2587 48.4132C31.1245 47.5474 32.5574 47.5474 33.4232 48.4132L34.8563 49.8461L39.6328 45.4278C40.5583 44.5919 41.9614 44.6516 42.7973 45.5472C43.6332 46.4428 43.5736 47.8758 42.678 48.7117L36.3191 54.5929C35.8713 54.981 35.3339 55.19 34.7965 55.19Z" fill="#292D32"/>
</svg>
