<svg width="140" height="135" viewBox="0 0 140 135" fill="none" xmlns="http://www.w3.org/2000/svg">
<path d="M51.8516 3.58057L93.3945 3.58057L135.961 46.147L135.961 115.727C135.961 124.329 128.987 131.302 120.385 131.302H51.8516C43.2494 131.302 36.2755 124.329 36.2754 115.727L36.2754 19.1567C36.2754 10.6888 43.0327 3.79866 51.4492 3.58545L51.8516 3.58057Z" fill="#EEF1F7" stroke="#CBD0DC" stroke-width="6.23035"/>
<rect x="0.449219" y="59.6536" width="93.4552" height="54.5155" rx="10.9031" fill="#D82042"/>
<path d="M15.9375 100.151L15.9375 74.0967H25.2244C27.2514 74.0967 28.9307 74.4656 30.2622 75.2035C31.5938 75.9413 32.5903 76.9506 33.2518 78.2313C33.9134 79.5034 34.2441 80.9367 34.2441 82.5312C34.2441 84.1342 33.9091 85.576 33.2391 86.8566C32.5776 88.1288 31.5768 89.138 30.2368 89.8844C28.9052 90.6223 27.2302 90.9912 25.2117 90.9912H18.8253V87.6581H24.8555C26.1361 87.6581 27.1751 87.4376 27.9723 86.9966C28.7695 86.547 29.3547 85.9364 29.7279 85.1646C30.1011 84.3928 30.2877 83.515 30.2877 82.5312C30.2877 81.5474 30.1011 80.6738 29.7279 79.9105C29.3547 79.1472 28.7653 78.5493 27.9596 78.1168C27.1623 77.6842 26.1107 77.4679 24.8046 77.4679H19.8685L19.8685 100.151H15.9375Z" fill="white"/>
<path d="M47.2871 100.151H38.8526L38.8526 74.0967H47.5543C50.1071 74.0967 52.2995 74.6183 54.1314 75.6615C55.9634 76.6962 57.367 78.1846 58.3423 80.1268C59.3261 82.0605 59.8181 84.3801 59.8181 87.0856C59.8181 89.7996 59.3219 92.1319 58.3296 94.0826C57.3458 96.0332 55.921 97.5344 54.0551 98.5861C52.1892 99.6293 49.9332 100.151 47.2871 100.151ZM42.7836 96.716H47.0708C49.0554 96.716 50.705 96.3428 52.0196 95.5965C53.3342 94.8416 54.318 93.7518 54.9711 92.327C55.6241 90.8937 55.9506 89.1465 55.9506 87.0856C55.9506 85.0416 55.6241 83.3072 54.9711 81.8824C54.3265 80.4576 53.3639 79.3762 52.0832 78.6384C50.8026 77.9005 49.2123 77.5316 47.3126 77.5316H42.7836V96.716Z" fill="white"/>
<path d="M64.7064 100.151V74.0967L80.863 74.0967V77.4807L68.6374 77.4807V85.4191L79.7054 85.4191V88.7903L68.6374 88.7903V100.151H64.7064Z" fill="white"/>
</svg>
