<svg width="290" height="144" viewBox="0 0 290 144" fill="none" xmlns="http://www.w3.org/2000/svg">
<path d="M127.258 25.0592C146.708 25.0592 141.068 52.9722 155.323 66.2053C179.5 88.6498 210.5 61.4066 248.5 61.9066C267.991 62.1631 283 74.9066 290 79.7534V126.907C290 137.952 281.046 146.907 270 146.907H20C8.95428 146.907 0 137.952 0 126.907V25.0592C8.70969 25.0592 15.0751 20.076 20.8065 12.5146C31.5 -1.59339 53.2258 -4.54595 63.871 12.5146C72.5644 26.4472 83.7097 25.0592 83.7097 25.0592H127.258Z" fill="url(#paint0_linear_1673_2334)"/>
<defs>
<linearGradient id="paint0_linear_1673_2334" x1="90" y1="0.800293" x2="90" y2="146.907" gradientUnits="userSpaceOnUse">
<stop stop-color="#0346F2" stop-opacity="0.24"/>
<stop offset="1" stop-color="#0346F2" stop-opacity="0.05"/>
</linearGradient>
</defs>
</svg>
